<svg width="1280" height="720" xmlns="http://www.w3.org/2000/svg" xmlns:xlink="http://www.w3.org/1999/xlink" overflow="hidden"><defs><clipPath id="clip0"><rect x="0" y="0" width="1280" height="720"/></clipPath></defs><g clip-path="url(#clip0)"><rect x="0" y="0" width="1280" height="720" fill="#FFFFFF"/><text font-family="Calibri Light,Calibri Light_MSFontService,sans-serif" font-weight="300" font-size="80" transform="translate(200.64 130)">Décomposition en modules</text><path d="M88.5001 313.9C88.5001 310.918 90.9177 308.5 93.9001 308.5L191.1 308.5C194.082 308.5 196.5 310.918 196.5 313.9L196.5 357.1C196.5 360.082 194.082 362.5 191.1 362.5L93.9001 362.5C90.9177 362.5 88.5001 360.082 88.5001 357.1Z" stroke="#FFFFFF" stroke-width="1.33333" stroke-miterlimit="8" fill="#ED7D31" fill-rule="evenodd"/><text fill="#FFFFFF" font-family="Calibri,Calibri_MSFontService,sans-serif" font-weight="400" font-size="23" transform="translate(103.123 342)">Étudiant</text><path d="M99.5001 362.5 99.5001 402.925 110.374 402.925" stroke="#70AD47" stroke-width="1.33333" stroke-miterlimit="8" fill="none" fill-rule="evenodd"/><path d="M110.5 380.9C110.5 377.918 112.918 375.5 115.9 375.5L191.1 375.5C194.082 375.5 196.5 377.918 196.5 380.9L196.5 424.1C196.5 427.082 194.082 429.5 191.1 429.5L115.9 429.5C112.918 429.5 110.5 427.082 110.5 424.1Z" stroke="#ED7D31" stroke-width="1.33333" stroke-miterlimit="8" fill="#FFFFFF" fill-rule="evenodd" fill-opacity="0.901961"/><text font-family="Calibri,Calibri_MSFontService,sans-serif" font-weight="400" font-size="17" transform="translate(126.42 407)">Ajouter</text><path d="M99.5001 362.5 99.5001 470.299 110.374 470.299" stroke="#70AD47" stroke-width="1.33333" stroke-miterlimit="8" fill="none" fill-rule="evenodd"/><path d="M110.5 448.9C110.5 445.918 112.918 443.5 115.9 443.5L191.1 443.5C194.082 443.5 196.5 445.918 196.5 448.9L196.5 492.1C196.5 495.082 194.082 497.5 191.1 497.5L115.9 497.5C112.918 497.5 110.5 495.082 110.5 492.1Z" stroke="#ED7D31" stroke-width="1.33333" stroke-miterlimit="8" fill="#FFFFFF" fill-rule="evenodd" fill-opacity="0.901961"/><text font-family="Calibri,Calibri_MSFontService,sans-serif" font-weight="400" font-size="17" transform="translate(122.283 474)">Modifier</text><path d="M99.5001 362.5 99.5001 537.673 110.374 537.673" stroke="#70AD47" stroke-width="1.33333" stroke-miterlimit="8" fill="none" fill-rule="evenodd"/><path d="M110.5 515.9C110.5 512.918 112.918 510.5 115.9 510.5L191.1 510.5C194.082 510.5 196.5 512.918 196.5 515.9L196.5 559.1C196.5 562.082 194.082 564.5 191.1 564.5L115.9 564.5C112.918 564.5 110.5 562.082 110.5 559.1Z" stroke="#ED7D31" stroke-width="1.33333" stroke-miterlimit="8" fill="#FFFFFF" fill-rule="evenodd" fill-opacity="0.901961"/><text font-family="Calibri,Calibri_MSFontService,sans-serif" font-weight="400" font-size="17" transform="translate(115.863 542)">Supprimer</text><path d="M223.5 313.9C223.5 310.918 225.918 308.5 228.9 308.5L326.1 308.5C329.082 308.5 331.5 310.918 331.5 313.9L331.5 357.1C331.5 360.082 329.082 362.5 326.1 362.5L228.9 362.5C225.918 362.5 223.5 360.082 223.5 357.1Z" stroke="#FFFFFF" stroke-width="1.33333" stroke-miterlimit="8" fill="#4472C4" fill-rule="evenodd"/><text fill="#FFFFFF" font-family="Calibri,Calibri_MSFontService,sans-serif" font-weight="400" font-size="23" transform="translate(250.579 342)">Cours</text><path d="M234.5 362.5 234.5 402.925 245.28 402.925" stroke="#70AD47" stroke-width="1.33333" stroke-miterlimit="8" fill="none" fill-rule="evenodd"/><path d="M244.5 380.9C244.5 377.918 246.918 375.5 249.9 375.5L326.1 375.5C329.082 375.5 331.5 377.918 331.5 380.9L331.5 424.1C331.5 427.082 329.082 429.5 326.1 429.5L249.9 429.5C246.918 429.5 244.5 427.082 244.5 424.1Z" stroke="#4472C4" stroke-width="1.33333" stroke-miterlimit="8" fill="#FFFFFF" fill-rule="evenodd" fill-opacity="0.901961"/><text font-family="Calibri,Calibri_MSFontService,sans-serif" font-weight="400" font-size="17" transform="translate(261.169 407)">Ajouter</text><path d="M234.5 362.5 234.5 470.299 245.28 470.299" stroke="#70AD47" stroke-width="1.33333" stroke-miterlimit="8" fill="none" fill-rule="evenodd"/><path d="M244.5 448.9C244.5 445.918 246.918 443.5 249.9 443.5L326.1 443.5C329.082 443.5 331.5 445.918 331.5 448.9L331.5 492.1C331.5 495.082 329.082 497.5 326.1 497.5L249.9 497.5C246.918 497.5 244.5 495.082 244.5 492.1Z" stroke="#4472C4" stroke-width="1.33333" stroke-miterlimit="8" fill="#FFFFFF" fill-rule="evenodd" fill-opacity="0.901961"/><text font-family="Calibri,Calibri_MSFontService,sans-serif" font-weight="400" font-size="17" transform="translate(257.032 474)">Modifier</text><path d="M234.5 362.5 234.5 537.673 245.28 537.673" stroke="#70AD47" stroke-width="1.33333" stroke-miterlimit="8" fill="none" fill-rule="evenodd"/><path d="M244.5 515.9C244.5 512.918 246.918 510.5 249.9 510.5L326.1 510.5C329.082 510.5 331.5 512.918 331.5 515.9L331.5 559.1C331.5 562.082 329.082 564.5 326.1 564.5L249.9 564.5C246.918 564.5 244.5 562.082 244.5 559.1Z" stroke="#4472C4" stroke-width="1.33333" stroke-miterlimit="8" fill="#FFFFFF" fill-rule="evenodd" fill-opacity="0.901961"/><text font-family="Calibri,Calibri_MSFontService,sans-serif" font-weight="400" font-size="17" transform="translate(250.612 542)">Supprimer</text><path d="M358.5 313.9C358.5 310.918 360.918 308.5 363.9 308.5L460.1 308.5C463.082 308.5 465.5 310.918 465.5 313.9L465.5 357.1C465.5 360.082 463.082 362.5 460.1 362.5L363.9 362.5C360.918 362.5 358.5 360.082 358.5 357.1Z" stroke="#FFFFFF" stroke-width="1.33333" stroke-miterlimit="8" fill="#5B9BD5" fill-rule="evenodd"/><text fill="#FFFFFF" font-family="Calibri,Calibri_MSFontService,sans-serif" font-weight="400" font-size="23" transform="translate(377.524 342)">Section</text><path d="M368.5 362.5 368.5 406.987 379.28 406.987" stroke="#70AD47" stroke-width="1.33333" stroke-miterlimit="8" fill="none" fill-rule="evenodd"/><path d="M379.5 385.8C379.5 382.873 381.873 380.5 384.8 380.5L460.2 380.5C463.127 380.5 465.5 382.873 465.5 385.8L465.5 428.2C465.5 431.127 463.127 433.5 460.2 433.5L384.8 433.5C381.873 433.5 379.5 431.127 379.5 428.2Z" stroke="#5B9BD5" stroke-width="1.33333" stroke-miterlimit="8" fill="#FFFFFF" fill-rule="evenodd" fill-opacity="0.901961"/><text font-family="Calibri,Calibri_MSFontService,sans-serif" font-weight="400" font-size="17" transform="translate(395.917 411)">Ajouter</text><path d="M368.5 362.5 368.5 474.361 379.28 474.361" stroke="#70AD47" stroke-width="1.33333" stroke-miterlimit="8" fill="none" fill-rule="evenodd"/><path d="M379.5 452.9C379.5 449.918 381.918 447.5 384.9 447.5L460.1 447.5C463.082 447.5 465.5 449.918 465.5 452.9L465.5 496.1C465.5 499.082 463.082 501.5 460.1 501.5L384.9 501.5C381.918 501.5 379.5 499.082 379.5 496.1Z" stroke="#5B9BD5" stroke-width="1.33333" stroke-miterlimit="8" fill="#FFFFFF" fill-rule="evenodd" fill-opacity="0.901961"/><text font-family="Calibri,Calibri_MSFontService,sans-serif" font-weight="400" font-size="17" transform="translate(391.781 478)">Modifier</text><path d="M368.5 362.5 368.5 541.736 379.28 541.736" stroke="#70AD47" stroke-width="1.33333" stroke-miterlimit="8" fill="none" fill-rule="evenodd"/><path d="M379.5 519.9C379.5 516.918 381.918 514.5 384.9 514.5L460.1 514.5C463.082 514.5 465.5 516.918 465.5 519.9L465.5 563.1C465.5 566.082 463.082 568.5 460.1 568.5L384.9 568.5C381.918 568.5 379.5 566.082 379.5 563.1Z" stroke="#5B9BD5" stroke-width="1.33333" stroke-miterlimit="8" fill="#FFFFFF" fill-rule="evenodd" fill-opacity="0.901961"/><text font-family="Calibri,Calibri_MSFontService,sans-serif" font-weight="400" font-size="17" transform="translate(385.361 546)">Supprimer</text><path d="M492.5 313.9C492.5 310.918 494.918 308.5 497.9 308.5L595.1 308.5C598.082 308.5 600.5 310.918 600.5 313.9L600.5 357.1C600.5 360.082 598.082 362.5 595.1 362.5L497.9 362.5C494.918 362.5 492.5 360.082 492.5 357.1Z" stroke="#FFFFFF" stroke-width="1.33333" stroke-miterlimit="8" fill="#70AD47" fill-rule="evenodd"/><text fill="#FFFFFF" font-family="Calibri,Calibri_MSFontService,sans-serif" font-weight="400" font-size="23" transform="translate(497.517 342)">Inscription</text><path d="M503.5 362.5 503.5 402.925 514.186 402.925" stroke="#70AD47" stroke-width="1.33333" stroke-miterlimit="8" fill="none" fill-rule="evenodd"/><path d="M514.5 380.9C514.5 377.918 516.918 375.5 519.9 375.5L595.1 375.5C598.082 375.5 600.5 377.918 600.5 380.9L600.5 424.1C600.5 427.082 598.082 429.5 595.1 429.5L519.9 429.5C516.918 429.5 514.5 427.082 514.5 424.1Z" stroke="#5EB347" stroke-width="1.33333" stroke-miterlimit="8" fill="#FFFFFF" fill-rule="evenodd" fill-opacity="0.901961"/><text font-family="Calibri,Calibri_MSFontService,sans-serif" font-weight="400" font-size="17" transform="translate(531 407)">Inscrire</text><path d="M503.5 362.5 503.5 470.299 514.28 470.299" stroke="#70AD47" stroke-width="1.33333" stroke-miterlimit="8" fill="none" fill-rule="evenodd"/><path d="M514.5 448.9C514.5 445.918 516.918 443.5 519.9 443.5L595.1 443.5C598.082 443.5 600.5 445.918 600.5 448.9L600.5 492.1C600.5 495.082 598.082 497.5 595.1 497.5L519.9 497.5C516.918 497.5 514.5 495.082 514.5 492.1Z" stroke="#70AD47" stroke-width="1.33333" stroke-miterlimit="8" fill="#FFFFFF" fill-rule="evenodd" fill-opacity="0.901961"/><text font-family="Calibri,Calibri_MSFontService,sans-serif" font-weight="400" font-size="17" transform="translate(518.25 474)">Désinscrire</text><path d="M648.5 318C648.5 315.515 650.515 313.5 653 313.5L735 313.5C737.485 313.5 739.5 315.515 739.5 318L739.5 354C739.5 356.485 737.485 358.5 735 358.5L653 358.5C650.515 358.5 648.5 356.485 648.5 354Z" stroke="#FFFFFF" stroke-width="1.33333" stroke-miterlimit="8" fill="#ED7D31" fill-rule="evenodd"/><text fill="#FFFFFF" font-family="Calibri,Calibri_MSFontService,sans-serif" font-weight="400" font-size="19" transform="translate(661.539 340)">Étudiant</text><path d="M761.5 318C761.5 315.515 763.515 313.5 766 313.5L848 313.5C850.485 313.5 852.5 315.515 852.5 318L852.5 354C852.5 356.485 850.485 358.5 848 358.5L766 358.5C763.515 358.5 761.5 356.485 761.5 354Z" stroke="#FFFFFF" stroke-width="1.33333" stroke-miterlimit="8" fill="#4472C4" fill-rule="evenodd"/><text fill="#FFFFFF" font-family="Calibri,Calibri_MSFontService,sans-serif" font-weight="400" font-size="19" transform="translate(785.231 340)">Cours</text><path d="M875.5 318C875.5 315.515 877.515 313.5 880 313.5L961 313.5C963.485 313.5 965.5 315.515 965.5 318L965.5 354C965.5 356.485 963.485 358.5 961 358.5L880 358.5C877.515 358.5 875.5 356.485 875.5 354Z" stroke="#FFFFFF" stroke-width="1.33333" stroke-miterlimit="8" fill="#5B9BD5" fill-rule="evenodd"/><text fill="#FFFFFF" font-family="Calibri,Calibri_MSFontService,sans-serif" font-weight="400" font-size="19" transform="translate(892.023 340)">Section</text><path d="M988.5 318C988.5 315.515 990.515 313.5 993 313.5L1075 313.5C1077.49 313.5 1079.5 315.515 1079.5 318L1079.5 354C1079.5 356.485 1077.49 358.5 1075 358.5L993 358.5C990.515 358.5 988.5 356.485 988.5 354Z" stroke="#FFFFFF" stroke-width="1.33333" stroke-miterlimit="8" fill="#48BB4F" fill-rule="evenodd"/><text fill="#FFFFFF" font-family="Calibri,Calibri_MSFontService,sans-serif" font-weight="400" font-size="19" transform="translate(993.095 340)">Inscription</text><path d="M1101.5 318C1101.5 315.515 1103.51 313.5 1106 313.5L1188 313.5C1190.49 313.5 1192.5 315.515 1192.5 318L1192.5 354C1192.5 356.485 1190.49 358.5 1188 358.5L1106 358.5C1103.51 358.5 1101.5 356.485 1101.5 354Z" stroke="#FFFFFF" stroke-width="1.33333" stroke-miterlimit="8" fill="#44546A" fill-rule="evenodd"/><text fill="#FFFFFF" font-family="Calibri,Calibri_MSFontService,sans-serif" font-weight="400" font-size="19" transform="translate(1135.63 340)">BD</text><path d="M1110.3 358.5 1110.3 392.467 1119.36 392.467" stroke="#70AD47" stroke-width="1.33333" stroke-miterlimit="8" fill="none" fill-rule="evenodd"/><path d="M1119.5 374C1119.5 371.515 1121.51 369.5 1124 369.5L1188 369.5C1190.49 369.5 1192.5 371.515 1192.5 374L1192.5 410C1192.5 412.485 1190.49 414.5 1188 414.5L1124 414.5C1121.51 414.5 1119.5 412.485 1119.5 410Z" stroke="#44546A" stroke-width="1.33333" stroke-miterlimit="8" fill="#FFFFFF" fill-rule="evenodd" fill-opacity="0.901961"/><text font-family="Calibri,Calibri_MSFontService,sans-serif" font-weight="400" font-size="15" transform="translate(1133.12 396)">Ajouter</text><path d="M1110.3 358.5 1110.3 449.078 1119.36 449.078" stroke="#70AD47" stroke-width="1.33333" stroke-miterlimit="8" fill="none" fill-rule="evenodd"/><path d="M1119.5 431C1119.5 428.515 1121.51 426.5 1124 426.5L1188 426.5C1190.49 426.5 1192.5 428.515 1192.5 431L1192.5 467C1192.5 469.485 1190.49 471.5 1188 471.5L1124 471.5C1121.51 471.5 1119.5 469.485 1119.5 467Z" stroke="#44546A" stroke-width="1.33333" stroke-miterlimit="8" fill="#FFFFFF" fill-rule="evenodd" fill-opacity="0.901961"/><text font-family="Calibri,Calibri_MSFontService,sans-serif" font-weight="400" font-size="15" transform="translate(1129.7 452)">Modifier</text><path d="M1110.3 358.5 1110.3 505.689 1119.36 505.689" stroke="#70AD47" stroke-width="1.33333" stroke-miterlimit="8" fill="none" fill-rule="evenodd"/><path d="M1119.5 487.1C1119.5 484.56 1121.56 482.5 1124.1 482.5L1187.9 482.5C1190.44 482.5 1192.5 484.56 1192.5 487.1L1192.5 523.9C1192.5 526.441 1190.44 528.5 1187.9 528.5L1124.1 528.5C1121.56 528.5 1119.5 526.441 1119.5 523.9Z" stroke="#44546A" stroke-width="1.33333" stroke-miterlimit="8" fill="#FFFFFF" fill-rule="evenodd" fill-opacity="0.901961"/><text font-family="Calibri,Calibri_MSFontService,sans-serif" font-weight="400" font-size="15" transform="translate(1124.27 509)">Supprimer</text><path d="M632.5 223.5 632.5 639.248" stroke="#A5A5A5" stroke-width="3" stroke-miterlimit="8" stroke-dasharray="12 9" fill="none" fill-rule="evenodd"/><path d="M294.5 221.5C294.5 216.53 298.53 212.5 303.5 212.5L379.5 212.5C384.471 212.5 388.5 216.53 388.5 221.5L388.5 257.5C388.5 262.471 384.471 266.5 379.5 266.5L303.5 266.5C298.53 266.5 294.5 262.471 294.5 257.5Z" stroke="#000000" stroke-width="1.33333" stroke-miterlimit="8" fill-rule="evenodd"/><text fill="#FFFFFF" font-family="Calibri,Calibri_MSFontService,sans-serif" font-weight="400" font-size="24" transform="translate(321.253 247)">App</text><path d="M0 0 203.826 42.2751" stroke="#000000" stroke-width="1.33333" stroke-miterlimit="8" fill="none" fill-rule="evenodd" transform="matrix(-1 0 0 1 341.326 266.5)"/><path d="M0 0 63.2441 42.3481" stroke="#000000" stroke-width="1.33333" stroke-miterlimit="8" fill="none" fill-rule="evenodd" transform="matrix(-1 0 0 1 341.744 266.5)"/><path d="M341.5 266.5 418.664 308.775" stroke="#000000" stroke-width="1.33333" stroke-miterlimit="8" fill="none" fill-rule="evenodd"/><path d="M341.5 266.5 553.298 308.848" stroke="#000000" stroke-width="1.33333" stroke-miterlimit="8" fill="none" fill-rule="evenodd"/><path d="M876.5 201.5C876.5 196.53 880.53 192.5 885.5 192.5L961.5 192.5C966.471 192.5 970.5 196.53 970.5 201.5L970.5 237.5C970.5 242.471 966.471 246.5 961.5 246.5L885.5 246.5C880.53 246.5 876.5 242.471 876.5 237.5Z" stroke="#000000" stroke-width="1.33333" stroke-miterlimit="8" fill-rule="evenodd"/><text fill="#FFFFFF" font-family="Calibri,Calibri_MSFontService,sans-serif" font-weight="400" font-size="24" transform="translate(903.581 226)">App</text><path d="M0 0 227.798 62.875" stroke="#000000" stroke-width="1.33333" stroke-miterlimit="8" fill="none" fill-rule="evenodd" transform="matrix(-1 0 0 1 923.298 246.5)"/><path d="M0 0 104.282 62.948" stroke="#000000" stroke-width="1.33333" stroke-miterlimit="8" fill="none" fill-rule="evenodd" transform="matrix(-1 0 0 1 923.782 246.5)"/><path d="M0 0 0.000104987 62.875" stroke="#000000" stroke-width="1.33333" stroke-miterlimit="8" fill="none" fill-rule="evenodd" transform="matrix(-1 0 0 1 923.5 246.5)"/><path d="M923.5 246.5 1027.78 309.448" stroke="#000000" stroke-width="1.33333" stroke-miterlimit="8" fill="none" fill-rule="evenodd"/><path d="M923.5 246.5 1143.33 309.448" stroke="#000000" stroke-width="1.33333" stroke-miterlimit="8" fill="none" fill-rule="evenodd"/><rect x="0" y="655" width="1280" height="48" fill="#E7E6E6"/><text fill="#4472C4" font-family="Segoe UI Semibold,Segoe UI Semibold_MSFontService,sans-serif" font-weight="600" font-size="32" transform="translate(206.483 691)">Module: Unité fournissant des ressources et/ou des <tspan font-size="32" x="752.753" y="0">services</tspan></text></g></svg>