<svg width="1280" height="720" xmlns="http://www.w3.org/2000/svg" xmlns:xlink="http://www.w3.org/1999/xlink" overflow="hidden"><defs><clipPath id="clip0"><rect x="0" y="0" width="1280" height="720"/></clipPath><clipPath id="clip1"><rect x="444" y="436" width="392" height="270"/></clipPath><clipPath id="clip2"><rect x="444" y="484" width="392" height="270"/></clipPath><clipPath id="clip3"><rect x="444" y="532" width="392" height="270"/></clipPath></defs><g clip-path="url(#clip0)"><rect x="0" y="0" width="1280" height="720" fill="#FFFFFF"/><rect x="0" y="0" width="1280" height="95" fill="#3B3838"/><text fill="#FFFFFF" font-family="Segoe UI,Segoe UI_MSFontService,sans-serif" font-weight="300" font-size="53" transform="translate(193.583 65)">Changement post-<tspan font-size="53" x="420.667" y="0">déploiement (étapes)</tspan></text><path d="M17.5001 309.5 216.5 309.5 266.5 359.5 216.5 409.5 17.5001 409.5Z" stroke="#FFFFFF" stroke-width="1.33333" stroke-miterlimit="8" fill="#FF5050" fill-rule="evenodd"/><text fill="#FFFFFF" font-family="Calibri,Calibri_MSFontService,sans-serif" font-weight="400" font-size="29" transform="translate(80.2955 367)">Initiation</text><path d="M217.5 309.5 416.5 309.5 466.5 359.5 416.5 409.5 217.5 409.5 267.5 359.5Z" stroke="#FFFFFF" stroke-width="1.33333" stroke-miterlimit="8" fill="#4472C4" fill-rule="evenodd"/><text fill="#FFFFFF" font-family="Calibri,Calibri_MSFontService,sans-serif" font-weight="400" font-size="29" transform="translate(289.101 367)">Concepts</text><path d="M416.5 309.5 615.5 309.5 665.5 359.5 615.5 409.5 416.5 409.5 466.5 359.5Z" stroke="#FFFFFF" stroke-width="1.33333" stroke-miterlimit="8" fill="#4472C4" fill-rule="evenodd"/><text fill="#FFFFFF" font-family="Calibri,Calibri_MSFontService,sans-serif" font-weight="400" font-size="29" transform="translate(502.175 367)">Impact</text><path d="M615.5 309.5 814.5 309.5 864.5 359.5 814.5 409.5 615.5 409.5 665.5 359.5Z" stroke="#FFFFFF" stroke-width="1.33333" stroke-miterlimit="8" fill="#70AD47" fill-rule="evenodd"/><text fill="#FFFFFF" font-family="Calibri,Calibri_MSFontService,sans-serif" font-weight="400" font-size="29" transform="translate(677.612 367)">Réalisation</text><path d="M814.5 309.5 1013.5 309.5 1063.5 359.5 1013.5 409.5 814.5 409.5 864.5 359.5Z" stroke="#FFFFFF" stroke-width="1.33333" stroke-miterlimit="8" fill="#70AD47" fill-rule="evenodd"/><text fill="#FFFFFF" font-family="Calibri,Calibri_MSFontService,sans-serif" font-weight="400" font-size="29" transform="translate(874.119 367)">Refactoring</text><path d="M1014.5 309.5 1213.5 309.5 1263.5 359.5 1213.5 409.5 1014.5 409.5 1064.5 359.5Z" stroke="#FFFFFF" stroke-width="1.33333" stroke-miterlimit="8" fill="#FF5050" fill-rule="evenodd"/><text fill="#FFFFFF" font-family="Calibri,Calibri_MSFontService,sans-serif" font-weight="400" font-size="29" transform="translate(1076.21 367)">Conclusion</text><path d="M444.545 546.757 835.454 546.757 835.454 594.757 444.545 594.757Z" fill="#FF5050" fill-rule="evenodd"/><path d="M444.545 594.757 835.454 594.757 835.454 642.757 444.545 642.757Z" fill="#4472C4" fill-rule="evenodd"/><path d="M444.545 642.757 835.454 642.757 835.454 690.757 444.545 690.757Z" fill="#70AD47" fill-rule="evenodd"/><path d="M443.879 594.757 836.121 594.757" stroke="#FFFFFF" stroke-width="1.33333" stroke-linejoin="round" stroke-miterlimit="10" fill="none" fill-rule="evenodd"/><path d="M443.879 642.757 836.121 642.757" stroke="#FFFFFF" stroke-width="1.33333" stroke-linejoin="round" stroke-miterlimit="10" fill="none" fill-rule="evenodd"/><path d="M444.545 546.09 444.545 691.423" stroke="#FFFFFF" stroke-width="1.33333" stroke-linejoin="round" stroke-miterlimit="10" fill="none" fill-rule="evenodd"/><path d="M835.454 546.09 835.454 691.423" stroke="#FFFFFF" stroke-width="1.33333" stroke-linejoin="round" stroke-miterlimit="10" fill="none" fill-rule="evenodd"/><path d="M443.879 546.757 836.121 546.757" stroke="#FFFFFF" stroke-width="1.33333" stroke-linejoin="round" stroke-miterlimit="10" fill="none" fill-rule="evenodd"/><path d="M443.879 690.757 836.121 690.757" stroke="#FFFFFF" stroke-width="1.33333" stroke-linejoin="round" stroke-miterlimit="10" fill="none" fill-rule="evenodd"/><g clip-path="url(#clip1)"><text fill="#FFFFFF" font-family="Calibri,Calibri_MSFontService,sans-serif" font-weight="400" font-size="32" transform="translate(454.145 582)">Interactions avec l’extérieur</text></g><g clip-path="url(#clip2)"><text fill="#FFFFFF" font-family="Calibri,Calibri_MSFontService,sans-serif" font-weight="400" font-size="32" transform="translate(454.145 630)">Conception</text></g><g clip-path="url(#clip3)"><text fill="#FFFFFF" font-family="Calibri,Calibri_MSFontService,sans-serif" font-weight="400" font-size="32" transform="translate(454.145 678)">Implémentation</text></g><path d="M21.5001 305.5C21.5001 295.007 22.9178 286.5 24.6666 286.5L115.334 286.5C117.082 286.5 118.5 277.994 118.5 267.5 118.5 277.994 119.918 286.5 121.667 286.5L212.334 286.5C214.082 286.5 215.5 295.007 215.5 305.5" stroke="#595959" stroke-width="3" stroke-miterlimit="8" fill="none" fill-rule="evenodd"/><path d="M232.5 305.5C232.5 295.007 233.918 286.5 235.667 286.5L419.333 286.5C421.082 286.5 422.5 277.993 422.5 267.5 422.5 277.993 423.918 286.5 425.667 286.5L609.333 286.5C611.082 286.5 612.5 295.007 612.5 305.5" stroke="#595959" stroke-width="3" stroke-miterlimit="8" fill="none" fill-rule="evenodd"/><path d="M628.5 305.5C628.5 295.007 629.918 286.5 631.667 286.5L815.333 286.5C817.082 286.5 818.5 277.993 818.5 267.5 818.5 277.993 819.918 286.5 821.667 286.5L1005.33 286.5C1007.08 286.5 1008.5 295.007 1008.5 305.5" stroke="#595959" stroke-width="3" stroke-miterlimit="8" fill="none" fill-rule="evenodd"/><path d="M1018.5 305.5C1018.5 295.007 1019.92 286.5 1021.67 286.5L1112.83 286.5C1114.58 286.5 1116 277.993 1116 267.5 1116 277.993 1117.42 286.5 1119.17 286.5L1210.33 286.5C1212.08 286.5 1213.5 295.007 1213.5 305.5" stroke="#595959" stroke-width="3" stroke-miterlimit="8" fill="none" fill-rule="evenodd"/><rect x="60" y="222" width="115" height="38" stroke="#FF5050" stroke-width="2" stroke-linejoin="round" stroke-miterlimit="10" fill="#FFFFFF"/><text font-family="Calibri,Calibri_MSFontService,sans-serif" font-weight="400" font-size="24" transform="translate(69.5388 248)">Exigences</text><rect x="313" y="221" width="218" height="39" stroke="#4472C4" stroke-width="2" stroke-linejoin="round" stroke-miterlimit="10" fill="#FFFFFF"/><text font-family="Calibri,Calibri_MSFontService,sans-serif" font-weight="400" font-size="24" transform="translate(322.793 248)">Analyse/Conception</text><rect x="729" y="222" width="178" height="38" stroke="#70AD47" stroke-width="2" stroke-linejoin="round" stroke-miterlimit="10" fill="#FFFFFF"/><text font-family="Calibri,Calibri_MSFontService,sans-serif" font-weight="400" font-size="24" transform="translate(739.008 248)">Implémentation</text><rect x="1042" y="222" width="147" height="38" stroke="#FF5050" stroke-width="2" stroke-linejoin="round" stroke-miterlimit="10" fill="#FFFFFF"/><text font-family="Calibri,Calibri_MSFontService,sans-serif" font-weight="400" font-size="24" transform="translate(1051.61 248)">Déploiement</text><rect x="640" y="388" width="372" height="39" fill="#548235" fill-opacity="0.901961"/><text fill="#FFFFFF" font-family="Calibri,Calibri_MSFontService,sans-serif" font-weight="400" font-size="24" transform="translate(770.432 415)">Vérification</text><path d="M1012.5 431.5C1012.5 441.994 1011.08 450.5 1009.33 450.5L831.167 450.5C829.418 450.5 828 459.007 828 469.5 828 459.007 826.582 450.5 824.833 450.5L646.667 450.5C644.918 450.5 643.5 441.993 643.5 431.5" stroke="#595959" stroke-width="3" stroke-miterlimit="8" fill="none" fill-rule="evenodd"/><rect x="799" y="466" width="58" height="39" stroke="#70AD47" stroke-width="2" stroke-linejoin="round" stroke-miterlimit="10" fill="#FFFFFF"/><text font-family="Calibri,Calibri_MSFontService,sans-serif" font-weight="400" font-size="24" transform="translate(808.119 493)">Test</text></g></svg>