<svg width="1280" height="720" xmlns="http://www.w3.org/2000/svg" xmlns:xlink="http://www.w3.org/1999/xlink" overflow="hidden"><defs><clipPath id="clip0"><rect x="0" y="0" width="1280" height="720"/></clipPath></defs><g clip-path="url(#clip0)"><rect x="0" y="0" width="1280" height="720" fill="#FFFFFF"/><text font-family="Calibri Light,Calibri Light_MSFontService,sans-serif" font-weight="300" font-size="80" transform="translate(204.363 121)">Modèle de développement<tspan font-family="Segoe UI Light,Segoe UI Light_MSFontService,sans-serif" font-size="37" x="-59.7986" y="125">Exigences</tspan><tspan font-family="Segoe UI Light,Segoe UI Light_MSFontService,sans-serif" font-size="37" x="-59.7986" y="199">Analyse</tspan><tspan font-family="Segoe UI Light,Segoe UI Light_MSFontService,sans-serif" font-size="37" x="-59.7986" y="273">Conception</tspan><tspan font-family="Segoe UI Light,Segoe UI Light_MSFontService,sans-serif" font-size="37" x="-59.7986" y="347">Implémentation</tspan><tspan font-family="Segoe UI Light,Segoe UI Light_MSFontService,sans-serif" font-size="37" x="-59.7986" y="421">Vérification</tspan><tspan font-family="Segoe UI Light,Segoe UI Light_MSFontService,sans-serif" font-size="37" x="-59.7986" y="495">Déploiement</tspan></text><path d="M486.5 191.667C486.5 189.366 488.366 187.5 490.667 187.5L533.333 187.5C535.635 187.5 537.5 189.366 537.5 191.667L537.5 208.333C537.5 210.635 535.635 212.5 533.333 212.5L490.667 212.5C488.366 212.5 486.5 210.635 486.5 208.333Z" stroke="#5B9BD5" stroke-width="1.33333" stroke-miterlimit="8" fill="#5B9BD5" fill-rule="evenodd"/><path d="M537.5 223.667C537.5 221.366 539.366 219.5 541.667 219.5L584.333 219.5C586.635 219.5 588.5 221.366 588.5 223.667L588.5 240.333C588.5 242.635 586.635 244.5 584.333 244.5L541.667 244.5C539.366 244.5 537.5 242.635 537.5 240.333Z" stroke="#FF5050" stroke-width="1.33333" stroke-miterlimit="8" fill="#FF5050" fill-rule="evenodd"/><path d="M587.5 256.667C587.5 254.366 589.366 252.5 591.667 252.5L634.333 252.5C636.635 252.5 638.5 254.366 638.5 256.667L638.5 273.333C638.5 275.635 636.635 277.5 634.333 277.5L591.667 277.5C589.366 277.5 587.5 275.635 587.5 273.333Z" stroke="#70AD47" stroke-width="1.33333" stroke-miterlimit="8" fill="#70AD47" fill-rule="evenodd"/><path d="M637.5 289.667C637.5 287.366 639.366 285.5 641.667 285.5L684.333 285.5C686.635 285.5 688.5 287.366 688.5 289.667L688.5 306.333C688.5 308.635 686.635 310.5 684.333 310.5L641.667 310.5C639.366 310.5 637.5 308.635 637.5 306.333Z" stroke="#FF6600" stroke-width="1.33333" stroke-miterlimit="8" fill="#FF6600" fill-rule="evenodd"/><path d="M688.5 323.667C688.5 321.366 690.366 319.5 692.667 319.5L735.333 319.5C737.635 319.5 739.5 321.366 739.5 323.667L739.5 340.333C739.5 342.635 737.635 344.5 735.333 344.5L692.667 344.5C690.366 344.5 688.5 342.635 688.5 340.333Z" stroke="#D20000" stroke-width="1.33333" stroke-miterlimit="8" fill="#D20000" fill-rule="evenodd"/><path d="M740.5 358.667C740.5 356.366 742.366 354.5 744.667 354.5L787.333 354.5C789.635 354.5 791.5 356.366 791.5 358.667L791.5 375.333C791.5 377.635 789.635 379.5 787.333 379.5L744.667 379.5C742.366 379.5 740.5 377.635 740.5 375.333Z" stroke="#002060" stroke-width="1.33333" stroke-miterlimit="8" fill="#002060" fill-rule="evenodd"/><path d="M869.5 310.667C869.5 308.366 871.366 306.5 873.667 306.5L916.333 306.5C918.635 306.5 920.5 308.366 920.5 310.667L920.5 327.333C920.5 329.635 918.635 331.5 916.333 331.5L873.667 331.5C871.366 331.5 869.5 329.635 869.5 327.333Z" stroke="#4472C4" stroke-width="1.33333" stroke-miterlimit="8" fill="#4472C4" fill-rule="evenodd"/><path d="M1023.5 310.667C1023.5 308.366 1025.37 306.5 1027.67 306.5L1070.33 306.5C1072.63 306.5 1074.5 308.366 1074.5 310.667L1074.5 327.333C1074.5 329.635 1072.63 331.5 1070.33 331.5L1027.67 331.5C1025.37 331.5 1023.5 329.635 1023.5 327.333Z" stroke="#FF6600" stroke-width="1.33333" stroke-miterlimit="8" fill="#FF6600" fill-rule="evenodd"/><path d="M958.5 310.667C958.5 308.366 960.366 306.5 962.667 306.5L1005.33 306.5C1007.63 306.5 1009.5 308.366 1009.5 310.667L1009.5 327.333C1009.5 329.635 1007.63 331.5 1005.33 331.5L962.667 331.5C960.366 331.5 958.5 329.635 958.5 327.333Z" stroke="#FF5050" stroke-width="1.33333" stroke-miterlimit="8" fill="#FF5050" fill-rule="evenodd"/><path d="M1113.5 311.667C1113.5 309.366 1115.37 307.5 1117.67 307.5L1160.33 307.5C1162.63 307.5 1164.5 309.366 1164.5 311.667L1164.5 328.333C1164.5 330.635 1162.63 332.5 1160.33 332.5L1117.67 332.5C1115.37 332.5 1113.5 330.635 1113.5 328.333Z" stroke="#002060" stroke-width="1.33333" stroke-miterlimit="8" fill="#002060" fill-rule="evenodd"/><path d="M983.011 306.515 983.53 302.237 984.997 297.902 987.189 293.916 990.107 290.335 993.601 287.311 998.049 285.115 999.377 287.805 995.102 289.916 995.419 289.705 992.169 292.518 992.35 292.331 989.6 295.706 989.752 295.481 987.689 299.231 987.796 298.989 986.421 303.052 986.489 302.751 985.989 306.876ZM996.06 282.528 1005.94 284.446 998.477 291.198Z" fill="#FF5050"/><path d="M920 318 951.451 318 951.451 320 920 320ZM950.118 315 958.118 319 950.118 323Z" fill="#4472C4"/><path d="M1074.02 318 1106.03 318.576 1106 320.576 1073.98 320ZM1104.75 315.553 1112.68 319.696 1104.61 323.551Z" fill="#FF6600"/><path d="M537.092 199.004 541.921 199.449 546.709 200.678 551.101 202.68 555.106 205.2 558.522 208.287 561.132 212.404 559.443 213.475 556.905 209.473 557.079 209.679 553.829 206.742 553.968 206.846 550.093 204.409 550.21 204.472 545.96 202.535 546.126 202.594 541.501 201.406 541.658 201.433 536.908 200.996ZM563.644 210.387 562.438 219.25 556.071 212.967Z" fill="#5B9BD5"/><path d="M588.106 230.006 592.88 230.515 597.609 231.875 602.018 234.015 605.899 236.861 609.267 240.164 611.853 243.877 612.281 245.369 610.358 245.921 609.976 244.588 610.117 244.884 607.679 241.384 607.8 241.526 604.55 238.339 604.659 238.431 600.909 235.681 601.063 235.775 596.813 233.712 596.974 233.774 592.411 232.461 592.581 232.494 587.894 231.994ZM614.809 243.278 613.125 252.062 607.108 245.445Z" fill="#FF5050"/><path d="M638.094 264.004 642.814 264.451 647.483 265.813 651.815 267.882 655.759 270.598 659.104 273.811 661.86 278.468 660.139 279.487 657.452 274.947 657.62 275.159 654.432 272.096 654.558 272.199 650.745 269.574 650.882 269.652 646.694 267.652 646.845 267.71 642.345 266.397 642.531 266.433 637.906 265.996ZM664.463 276.573 662.875 285.375 656.786 278.823Z" fill="#70AD47"/><path d="M688.105 296.005 692.94 296.514 697.738 297.876 702.141 300.077 706.148 302.921 709.519 306.292 712.164 310.061 712.631 311.667 710.711 312.226 710.29 310.779 710.431 311.074 707.931 307.512 708.043 307.645 704.793 304.395 704.921 304.503 701.046 301.753 701.178 301.832 696.928 299.707 697.102 299.775 692.477 298.462 692.645 298.495 687.895 297.995ZM715.174 309.601 713.438 318.375 707.461 311.721Z" fill="#FF6600"/><path d="M739.101 330.005 744.141 330.515 749.067 332.071 753.651 334.395 757.789 337.435 761.22 341.059 763.974 345.125 764.626 347.245 762.715 347.833 762.107 345.857 762.235 346.123 759.61 342.248 759.711 342.375 756.399 338.875 756.533 338.993 752.533 336.056 752.673 336.142 748.235 333.892 748.386 333.954 743.636 332.454 743.837 332.495 738.899 331.995ZM767.219 345.261 765.312 354 759.465 347.232Z" fill="#D20000"/><path d="M1005.5 284.5C1005.5 278.425 1010.65 273.5 1017 273.5 1023.35 273.5 1028.5 278.425 1028.5 284.5 1028.5 290.575 1023.35 295.5 1017 295.5 1010.65 295.5 1005.5 290.575 1005.5 284.5Z" stroke="#70AD47" stroke-width="1.33333" stroke-miterlimit="8" fill="#70AD47" fill-rule="evenodd"/><path d="M1028.69 283.012 1032.8 283.534 1036.91 285.084 1040.71 287.415 1044.08 290.394 1047.04 294.016 1049.22 298.842 1046.49 300.081 1044.38 295.432 1044.59 295.76 1041.84 292.385 1042.01 292.562 1038.82 289.75 1039.03 289.903 1035.47 287.716 1035.72 287.841 1031.91 286.404 1032.25 286.488 1028.31 285.988ZM1051.88 296.943 1049.62 306.75 1043.13 299.063Z" fill="#70AD47"/><path d="M1005.5 354C1005.5 347.649 1010.65 342.5 1017 342.5 1023.35 342.5 1028.5 347.649 1028.5 354 1028.5 360.351 1023.35 365.5 1017 365.5 1010.65 365.5 1005.5 360.351 1005.5 354Z" stroke="#D20000" stroke-width="1.33333" stroke-miterlimit="8" fill="#D20000" fill-rule="evenodd"/><path d="M1051.11 331.681 1050.59 335.949 1049.19 340.285 1046.99 344.28 1044.08 347.856 1040.65 350.879 1036.37 353.017 1035.03 350.334 1039.14 348.283 1038.81 348.5 1042 345.688 1041.83 345.865 1044.58 342.49 1044.43 342.715 1046.49 338.965 1046.38 339.226 1047.69 335.164 1047.63 335.444 1048.13 331.319ZM1038.39 355.585 1028.49 353.75 1035.9 346.936Z" fill="#FF6600"/><path d="M1005.71 355.206 1001.53 354.684 997.363 353.137 993.507 350.811 990.062 347.829 987.111 344.208 984.868 339.388 987.588 338.122 989.752 342.772 989.555 342.458 992.305 345.833 992.124 345.646 995.374 348.458 995.167 348.308 998.792 350.496 998.539 350.374 1002.41 351.811 1002.08 351.729 1006.08 352.229ZM982.211 341.276 984.455 331.468 990.955 339.148Z" fill="#D20000"/><path d="M0 0 228.706 0.000104987" stroke="#7F7F7F" stroke-width="2" stroke-miterlimit="8" fill="none" fill-rule="evenodd" transform="matrix(-1 0 0 1 739.706 367)"/><path d="M1-0.000190851 1.00305 15.9998-0.996946 16.0002-1 0.000190851ZM1.0042 21.9998 1.00725 37.9998-0.992748 38.0002-0.995801 22.0002ZM1.0084 43.9998 1.01145 59.9998-0.988549 60.0002-0.991603 44.0002ZM1.0126 65.9998 1.01565 81.9998-0.98435 82.0002-0.987404 66.0002ZM1.01679 87.9998 1.01985 104-0.980151 104-0.983205 88.0002ZM1.02099 110 1.02405 126-0.975953 126-0.979006 110ZM1.02519 132 1.02823 147.911-0.971771 147.911-0.974808 132ZM4.02797 146.577 0.0295013 154.578-3.97203 146.578Z" fill="#7F7F7F" transform="matrix(1 0 0 -1 511 366.578)"/><path d="M1-8.54182e-07 1.00001 8-0.999993 8-1 8.54182e-07ZM1.00001 14 1.00002 22-0.999981 22-0.999988 14ZM1.00002 28 1.00003 36-0.999969 36-0.999976 28ZM1.00004 42 1.00004 50-0.999957 50-0.999964 42ZM1.00005 56 1.00005 64-0.999945 64-0.999952 56ZM1.00006 70 1.00007 78-0.999933 78-0.99994 70ZM1.00007 84 1.00008 92-0.999921 92-0.999928 84ZM1.00008 98 1.00009 106-0.999909 106-0.999916 98ZM1.0001 112 1.0001 116.243-0.999901 116.243-0.999904 112ZM4.0001 114.909 0.000104987 122.909-3.9999 114.909Z" fill="#7F7F7F" transform="matrix(1 0 0 -1 562 366.909)"/><path d="M1-1.17365e-06 1.00001 8-0.999991 8-1 1.17365e-06ZM1.00002 14 1.00003 22-0.999974 22-0.999984 14ZM1.00003 28 1.00004 36-0.999958 36-0.999967 28ZM1.00005 42 1.00006 50-0.999941 50-0.999951 42ZM1.00007 56 1.00008 64-0.999925 64-0.999934 56ZM1.00008 70 1.00009 78-0.999908 78-0.999918 70ZM4.0001 81.4536 0.000104987 89.4536-3.9999 81.4537Z" fill="#7F7F7F" transform="matrix(1 0 0 -1 613 366.454)"/><path d="M1-1.85155e-06 1.00001 6-0.999989 6-1 1.85155e-06ZM1.00001 8 1.00003 14-0.999974 14-0.999985 8ZM1.00003 16 1.00004 22-0.999959 22-0.99997 16ZM1.00004 24 1.00006 30-0.999944 30-0.999956 24ZM1.00006 32 1.00007 38-0.99993 38-0.999941 32ZM1.00007 40 1.00009 46-0.999915 46-0.999926 40ZM1.00009 48 1.00009 50.0356-0.999907 50.0356-0.999911 48ZM4.00009 48.7022 0.000104987 56.7023-3.99991 48.7023Z" fill="#7F7F7F" transform="matrix(1 0 0 -1 663 366.702)"/><path d="M713.834 366.912 713.252 350.923 715.25 350.85 715.833 366.84ZM710.294 352.14 714 344 718.289 351.849Z" fill="#7F7F7F"/><path d="M491.5 485.667C491.5 483.366 493.366 481.5 495.667 481.5L538.333 481.5C540.635 481.5 542.5 483.366 542.5 485.667L542.5 502.333C542.5 504.635 540.635 506.5 538.333 506.5L495.667 506.5C493.366 506.5 491.5 504.635 491.5 502.333Z" stroke="#5B9BD5" stroke-width="1.33333" stroke-miterlimit="8" fill="#5B9BD5" fill-rule="evenodd"/><path d="M933.5 485.667C933.5 483.366 935.366 481.5 937.667 481.5L980.333 481.5C982.635 481.5 984.5 483.366 984.5 485.667L984.5 502.333C984.5 504.635 982.635 506.5 980.333 506.5L937.667 506.5C935.366 506.5 933.5 504.635 933.5 502.333Z" stroke="#002060" stroke-width="1.33333" stroke-miterlimit="8" fill="#002060" fill-rule="evenodd"/><path d="M844.5 485.667C844.5 483.366 846.366 481.5 848.667 481.5L891.333 481.5C893.635 481.5 895.5 483.366 895.5 485.667L895.5 502.333C895.5 504.635 893.635 506.5 891.333 506.5L848.667 506.5C846.366 506.5 844.5 504.635 844.5 502.333Z" stroke="#D20000" stroke-width="1.33333" stroke-miterlimit="8" fill="#D20000" fill-rule="evenodd"/><path d="M756.5 485.667C756.5 483.366 758.366 481.5 760.667 481.5L803.333 481.5C805.635 481.5 807.5 483.366 807.5 485.667L807.5 502.333C807.5 504.635 805.635 506.5 803.333 506.5L760.667 506.5C758.366 506.5 756.5 504.635 756.5 502.333Z" stroke="#FF6600" stroke-width="1.33333" stroke-miterlimit="8" fill="#FF6600" fill-rule="evenodd"/><path d="M668.5 485.667C668.5 483.366 670.366 481.5 672.667 481.5L714.333 481.5C716.635 481.5 718.5 483.366 718.5 485.667L718.5 502.333C718.5 504.635 716.635 506.5 714.333 506.5L672.667 506.5C670.366 506.5 668.5 504.635 668.5 502.333Z" stroke="#70AD47" stroke-width="1.33333" stroke-miterlimit="8" fill="#70AD47" fill-rule="evenodd"/><path d="M578.5 485.667C578.5 483.366 580.366 481.5 582.667 481.5L625.333 481.5C627.635 481.5 629.5 483.366 629.5 485.667L629.5 502.333C629.5 504.635 627.635 506.5 625.333 506.5L582.667 506.5C580.366 506.5 578.5 504.635 578.5 502.333Z" stroke="#FF5050" stroke-width="1.33333" stroke-miterlimit="8" fill="#FF5050" fill-rule="evenodd"/><text font-family="Segoe UI Light,Segoe UI Light_MSFontService,sans-serif" font-weight="300" font-size="32" transform="translate(504.178 413)">Linéaire<tspan font-size="32" x="375.59" y="0">Itératif</tspan><tspan font-size="32" x="8.25278" y="242">Incrémental</tspan></text><path d="M542 492 571.582 492 571.582 494 542 494ZM570.249 489 578.249 493 570.249 497Z" fill="#4472C4"/><path d="M629 492 660.689 492 660.689 494 629 494ZM659.356 489 667.356 493 659.356 497Z" fill="#FF5050"/><path d="M718.004 492 749.294 492.132 749.286 494.132 717.996 494ZM747.974 489.126 755.957 493.16 747.94 497.126Z" fill="#70AD47"/><path d="M0.0043033-0.999991 30.4693-0.868889 30.4607 1.13109-0.0043033 0.999991ZM29.1489-3.8746 37.1317 0.15979 29.1145 4.12533Z" fill="#FF6600" transform="matrix(1 0 0 -1 807 493.16)"/><path d="M896 492 927.29 492 927.29 494 896 494ZM925.957 489 933.957 493 925.957 497Z" fill="#D20000"/><path d="M984.5 492 1010.56 492 1010.56 519.777 1007.56 519.777 1007.56 493.5 1009.06 495 984.5 495ZM1013.56 518.277 1009.06 527.277 1004.56 518.277Z" fill="#002060"/><path d="M85 382.5C85 368.969 96.1929 358 110 358 123.807 358 135 368.969 135 382.5 135 396.031 123.807 407 110 407 96.1929 407 85 396.031 85 382.5Z" fill="#70AD47" fill-rule="evenodd"/><path d="M87 455.5C87 441.969 97.969 431 111.5 431 125.031 431 136 441.969 136 455.5 136 469.031 125.031 480 111.5 480 97.969 480 87 469.031 87 455.5Z" fill="#FF6600" fill-rule="evenodd"/><path d="M87 528.5C87 514.969 97.969 504 111.5 504 125.031 504 136 514.969 136 528.5 136 542.031 125.031 553 111.5 553 97.969 553 87 542.031 87 528.5Z" fill="#D20000" fill-rule="evenodd"/><path d="M87 602.5C87 588.969 97.969 578 111.5 578 125.031 578 136 588.969 136 602.5 136 616.031 125.031 627 111.5 627 97.969 627 87 616.031 87 602.5Z" fill="#002060" fill-rule="evenodd"/><path d="M87 309.5C87 295.969 97.969 285 111.5 285 125.031 285 136 295.969 136 309.5 136 323.031 125.031 334 111.5 334 97.969 334 87 323.031 87 309.5Z" fill="#FF5050" fill-rule="evenodd"/><path d="M87 236.5C87 222.969 97.969 212 111.5 212 125.031 212 136 222.969 136 236.5 136 250.031 125.031 261 111.5 261 97.969 261 87 250.031 87 236.5Z" fill="#5B9BD5" fill-rule="evenodd"/><path d="M541.5 531.667C541.5 529.366 543.366 527.5 545.667 527.5L588.333 527.5C590.635 527.5 592.5 529.366 592.5 531.667L592.5 548.333C592.5 550.635 590.635 552.5 588.333 552.5L545.667 552.5C543.366 552.5 541.5 550.635 541.5 548.333Z" stroke="#5B9BD5" stroke-width="1.33333" stroke-miterlimit="8" fill="#5B9BD5" fill-rule="evenodd"/><path d="M983.5 531.667C983.5 529.366 985.366 527.5 987.667 527.5L1030.33 527.5C1032.63 527.5 1034.5 529.366 1034.5 531.667L1034.5 548.333C1034.5 550.635 1032.63 552.5 1030.33 552.5L987.667 552.5C985.366 552.5 983.5 550.635 983.5 548.333Z" stroke="#002060" stroke-width="1.33333" stroke-miterlimit="8" fill="#002060" fill-rule="evenodd"/><path d="M894.5 531.667C894.5 529.366 896.366 527.5 898.667 527.5L941.333 527.5C943.635 527.5 945.5 529.366 945.5 531.667L945.5 548.333C945.5 550.635 943.635 552.5 941.333 552.5L898.667 552.5C896.366 552.5 894.5 550.635 894.5 548.333Z" stroke="#D20000" stroke-width="1.33333" stroke-miterlimit="8" fill="#D20000" fill-rule="evenodd"/><path d="M806.5 531.667C806.5 529.366 808.366 527.5 810.667 527.5L853.333 527.5C855.635 527.5 857.5 529.366 857.5 531.667L857.5 548.333C857.5 550.635 855.635 552.5 853.333 552.5L810.667 552.5C808.366 552.5 806.5 550.635 806.5 548.333Z" stroke="#FF6600" stroke-width="1.33333" stroke-miterlimit="8" fill="#FF6600" fill-rule="evenodd"/><path d="M718.5 531.667C718.5 529.366 720.366 527.5 722.667 527.5L764.333 527.5C766.635 527.5 768.5 529.366 768.5 531.667L768.5 548.333C768.5 550.635 766.635 552.5 764.333 552.5L722.667 552.5C720.366 552.5 718.5 550.635 718.5 548.333Z" stroke="#70AD47" stroke-width="1.33333" stroke-miterlimit="8" fill="#70AD47" fill-rule="evenodd"/><path d="M628.5 531.667C628.5 529.366 630.366 527.5 632.667 527.5L675.333 527.5C677.635 527.5 679.5 529.366 679.5 531.667L679.5 548.333C679.5 550.635 677.635 552.5 675.333 552.5L632.667 552.5C630.366 552.5 628.5 550.635 628.5 548.333Z" stroke="#FF5050" stroke-width="1.33333" stroke-miterlimit="8" fill="#FF5050" fill-rule="evenodd"/><path d="M592 538 621.582 538 621.582 540 592 540ZM620.249 535 628.249 539 620.249 543Z" fill="#4472C4"/><path d="M679 538 710.689 538 710.689 540 679 540ZM709.356 535 717.356 539 709.356 543Z" fill="#FF5050"/><path d="M768.004 538 799.294 538.132 799.286 540.132 767.996 540ZM797.974 535.126 805.957 539.16 797.94 543.126Z" fill="#70AD47"/><path d="M0.0043033-0.999991 30.4693-0.868889 30.4607 1.13109-0.0043033 0.999991ZM29.1489-3.8746 37.1317 0.15979 29.1145 4.12533Z" fill="#FF6600" transform="matrix(1 0 0 -1 857 539.16)"/><path d="M946 538 977.29 538 977.29 540 946 540ZM975.957 535 983.957 539 975.957 543Z" fill="#D20000"/><path d="M592.5 577.5C592.5 575.291 594.291 573.5 596.5 573.5L639.5 573.5C641.709 573.5 643.5 575.291 643.5 577.5L643.5 593.5C643.5 595.709 641.709 597.5 639.5 597.5L596.5 597.5C594.291 597.5 592.5 595.709 592.5 593.5Z" stroke="#5B9BD5" stroke-width="1.33333" stroke-miterlimit="8" fill="#5B9BD5" fill-rule="evenodd"/><path d="M1034.5 577.5C1034.5 575.291 1036.29 573.5 1038.5 573.5L1081.5 573.5C1083.71 573.5 1085.5 575.291 1085.5 577.5L1085.5 593.5C1085.5 595.709 1083.71 597.5 1081.5 597.5L1038.5 597.5C1036.29 597.5 1034.5 595.709 1034.5 593.5Z" stroke="#002060" stroke-width="1.33333" stroke-miterlimit="8" fill="#002060" fill-rule="evenodd"/><path d="M945.5 577.5C945.5 575.291 947.291 573.5 949.5 573.5L992.5 573.5C994.709 573.5 996.5 575.291 996.5 577.5L996.5 593.5C996.5 595.709 994.709 597.5 992.5 597.5L949.5 597.5C947.291 597.5 945.5 595.709 945.5 593.5Z" stroke="#D20000" stroke-width="1.33333" stroke-miterlimit="8" fill="#D20000" fill-rule="evenodd"/><path d="M857.5 577.667C857.5 575.366 859.366 573.5 861.667 573.5L904.333 573.5C906.635 573.5 908.5 575.366 908.5 577.667L908.5 594.333C908.5 596.635 906.635 598.5 904.333 598.5L861.667 598.5C859.366 598.5 857.5 596.635 857.5 594.333Z" stroke="#FF6600" stroke-width="1.33333" stroke-miterlimit="8" fill="#FF6600" fill-rule="evenodd"/><path d="M768.5 577.5C768.5 575.291 770.291 573.5 772.5 573.5L815.5 573.5C817.709 573.5 819.5 575.291 819.5 577.5L819.5 593.5C819.5 595.709 817.709 597.5 815.5 597.5L772.5 597.5C770.291 597.5 768.5 595.709 768.5 593.5Z" stroke="#70AD47" stroke-width="1.33333" stroke-miterlimit="8" fill="#70AD47" fill-rule="evenodd"/><path d="M679.5 577.5C679.5 575.291 681.291 573.5 683.5 573.5L726.5 573.5C728.709 573.5 730.5 575.291 730.5 577.5L730.5 593.5C730.5 595.709 728.709 597.5 726.5 597.5L683.5 597.5C681.291 597.5 679.5 595.709 679.5 593.5Z" stroke="#FF5050" stroke-width="1.33333" stroke-miterlimit="8" fill="#FF5050" fill-rule="evenodd"/><path d="M643 584 672.582 584 672.582 586 643 586ZM671.249 581 679.249 585 671.249 589Z" fill="#4472C4"/><path d="M730 584 761.689 584 761.689 586 730 586ZM760.356 581 768.356 585 760.356 589Z" fill="#FF5050"/><path d="M819.004 584 850.294 584.132 850.286 586.132 818.996 586ZM848.974 581.126 856.957 585.16 848.94 589.126Z" fill="#70AD47"/><path d="M0.0043033-0.999991 30.4693-0.868889 30.4607 1.13109-0.0043033 0.999991ZM29.1489-3.8746 37.1317 0.15979 29.1145 4.12533Z" fill="#FF6600" transform="matrix(1 0 0 -1 908 585.16)"/><path d="M996 584 1027.29 584 1027.29 586 996 586ZM1025.96 581 1033.96 585 1025.96 589Z" fill="#D20000"/><path d="M1034.5 538 1061.41 538 1061.41 565.176 1058.41 565.176 1058.41 539.5 1059.91 541 1034.5 541ZM1064.41 563.676 1059.91 572.676 1055.41 563.676Z" fill="#002060"/><text fill="#262626" font-family="Consolas,Consolas_MSFontService,sans-serif" font-weight="700" font-size="24" transform="translate(957.483 476)">v<tspan font-size="24" x="13.1667" y="0">1</tspan><tspan font-size="24" x="62.5767" y="46">v2</tspan><tspan font-size="24" x="107.362" y="90">v3</tspan></text></g></svg>