<svg width="1280" height="720" xmlns="http://www.w3.org/2000/svg" xmlns:xlink="http://www.w3.org/1999/xlink" overflow="hidden"><defs><clipPath id="clip0"><rect x="0" y="0" width="1280" height="720"/></clipPath></defs><g clip-path="url(#clip0)"><rect x="0" y="0" width="1280" height="720" fill="#FFFFFF"/><rect x="34" y="34" width="1212" height="652" fill="#000000" fill-opacity="0.0784314"/><text fill="#4472C4" font-family="Calibri Light,Calibri Light_MSFontService,sans-serif" font-weight="300" font-size="64" transform="translate(205.233 308)">Couplage <tspan font-size="64" x="-65.32" y="69">et Cohésion </tspan><tspan font-size="64" x="-81.5067" y="138">dans le code</tspan></text><path d="M489 216 489 504" stroke="#262626" stroke-width="2" stroke-miterlimit="8" fill="none" fill-rule="evenodd"/><text font-family="Consolas,Consolas_MSFontService,sans-serif" font-weight="400" font-size="29" transform="translate(532.018 141)">// Deux choses se passent, pas évident<tspan font-size="29" x="0" y="32">// Couplage fort</tspan><tspan fill="#FF0066" font-weight="700" font-size="29" x="0" y="77">int</tspan><tspan fill="#FF5050" font-size="29" x="64.6667" y="77">x = </tspan><tspan fill="#FF5050" font-size="29" x="129.333" y="77">lireVecteur</tspan><tspan fill="#FF5050" font-size="29" x="307.167" y="77">(</tspan><tspan fill="#FF0066" font-size="29" x="323.333" y="77">v</tspan><tspan fill="#FF5050" font-size="29" x="339.5" y="77">);</tspan><tspan font-size="29" x="0" y="167">// Compréhensible mais pas réutilisable</tspan><tspan fill="#FF0066" font-weight="700" font-size="29" x="0" y="212">int</tspan><tspan fill="#FF5050" font-size="29" x="64.6667" y="212">x = </tspan><tspan fill="#FF5050" font-size="29" x="129.333" y="212">lireVecteurEtCalculerSomme</tspan><tspan fill="#FF5050" font-size="29" x="549.667" y="212">(</tspan><tspan fill="#FF0066" font-size="29" x="565.833" y="212">v</tspan><tspan fill="#FF5050" font-size="29" x="582" y="212">);</tspan><tspan font-size="29" x="0" y="302">// Deux actions </tspan><tspan font-size="29" x="258.667" y="302">séparées</tspan><tspan font-size="29" x="0" y="334">// </tspan><tspan font-size="29" x="48.5" y="334">Bons noms (méthodes et variables)</tspan><tspan font-size="29" x="0" y="365">// Forte cohésion</tspan><tspan fill="#FF0066" font-weight="700" font-size="29" x="0" y="410">var</tspan><tspan fill="#FF5050" font-size="29" x="64.6667" y="410">vec</tspan><tspan fill="#FF5050" font-size="29" x="129.333" y="410">= </tspan><tspan fill="#FF5050" font-size="29" x="161.667" y="410">lireVecteur</tspan><tspan fill="#FF5050" font-size="29" x="339.5" y="410">(</tspan><tspan fill="#FF0066" font-size="29" x="355.667" y="410">v</tspan><tspan fill="#FF5050" font-size="29" x="371.833" y="410">);</tspan><tspan fill="#FF0066" font-weight="700" font-size="29" x="0" y="455">int</tspan><tspan fill="#FF5050" font-size="29" x="64.6667" y="455">sum</tspan><tspan fill="#FF5050" font-size="29" x="129.333" y="455">= </tspan><tspan fill="#FF5050" font-size="29" x="161.667" y="455">calculerSomme</tspan><tspan fill="#FF5050" font-size="29" x="371.833" y="455">(</tspan><tspan fill="#FF0066" font-size="29" x="388" y="455">vec</tspan><tspan fill="#FF5050" font-size="29" x="436.5" y="455">);</tspan></text></g></svg>