<svg width="1280" height="720" xmlns="http://www.w3.org/2000/svg" xmlns:xlink="http://www.w3.org/1999/xlink" overflow="hidden"><defs><clipPath id="clip0"><rect x="0" y="0" width="1280" height="720"/></clipPath></defs><g clip-path="url(#clip0)"><rect x="0" y="0" width="1280" height="720" fill="#FFFFFF"/><rect x="0" y="0" width="1280" height="83" fill="#5F4B8B"/><text fill="#FFFFFF" font-family="Segoe UI Light,Segoe UI Light_MSFontService,sans-serif" font-weight="300" font-size="59" transform="translate(401.583 60)">Phases d’un logiciel</text><rect x="0" y="83" width="1280" height="303" fill="#FFF2CC" fill-opacity="0.501961"/><rect x="0" y="384" width="1280" height="336" fill="#DAE3F3" fill-opacity="0.501961"/><path d="M299.5 264.8 351.877 264.8 351.877 267.8 299.5 267.8ZM343.633 259.754 354.854 266.3 343.633 272.846C342.917 273.263 341.999 273.021 341.581 272.306 341.164 271.59 341.406 270.672 342.121 270.254L351.121 265.004 351.121 267.596 342.121 262.346C341.406 261.928 341.164 261.01 341.581 260.294 341.999 259.579 342.917 259.337 343.633 259.754Z" fill="#3B3838"/><path d="M45.5001 215.001C45.5001 200.917 56.917 189.5 71.0006 189.5L273.999 189.5C288.083 189.5 299.5 200.917 299.5 215.001L299.5 316.999C299.5 331.083 288.083 342.5 273.999 342.5L71.0006 342.5C56.917 342.5 45.5001 331.083 45.5001 316.999Z" stroke="#FFFFFF" stroke-width="1.33333" stroke-miterlimit="8" fill="#3B3838" fill-rule="evenodd"/><text fill="#FFFFFF" font-family="Calibri,Calibri_MSFontService,sans-serif" font-weight="400" font-size="43" transform="translate(88.9633 230)">Pre<tspan font-size="43" x="57.58" y="0">-</tspan>alpha</text><path d="M612.5 264.8 664.877 264.8 664.877 267.8 612.5 267.8ZM656.633 259.754 667.854 266.3 656.633 272.846C655.917 273.263 654.999 273.021 654.581 272.306 654.164 271.59 654.406 270.672 655.121 270.254L664.121 265.004 664.121 267.596 655.121 262.346C654.406 261.928 654.164 261.01 654.581 260.294 654.999 259.579 655.917 259.337 656.633 259.754Z" fill="#FF5050"/><path d="M358.5 215.001C358.5 200.917 369.917 189.5 384.001 189.5L588 189.5C602.083 189.5 613.5 200.917 613.5 215.001L613.5 316.999C613.5 331.083 602.083 342.5 588 342.5L384.001 342.5C369.917 342.5 358.5 331.083 358.5 316.999Z" stroke="#FFFFFF" stroke-width="1.33333" stroke-miterlimit="8" fill="#FF5050" fill-rule="evenodd"/><text fill="#FFFFFF" font-family="Calibri,Calibri_MSFontService,sans-serif" font-weight="400" font-size="43" transform="translate(435.327 230)">Alpha</text><path d="M925.5 264.8 977.877 264.8 977.877 267.8 925.5 267.8ZM969.633 259.754 980.854 266.3 969.633 272.846C968.917 273.263 967.999 273.021 967.581 272.306 967.164 271.59 967.406 270.672 968.121 270.254L977.121 265.004 977.121 267.596 968.121 262.346C967.406 261.928 967.164 261.01 967.581 260.294 967.999 259.579 968.917 259.337 969.633 259.754Z" fill="#ED7D31"/><path d="M671.5 215.001C671.5 200.917 682.917 189.5 697.001 189.5L901 189.5C915.083 189.5 926.5 200.917 926.5 215.001L926.5 316.999C926.5 331.083 915.083 342.5 901 342.5L697.001 342.5C682.917 342.5 671.5 331.083 671.5 316.999Z" stroke="#FFFFFF" stroke-width="1.33333" stroke-miterlimit="8" fill="#ED7D31" fill-rule="evenodd"/><text fill="#FFFFFF" font-family="Calibri,Calibri_MSFontService,sans-serif" font-weight="400" font-size="43" transform="translate(759.164 230)">Beta</text><path d="M1113.5 342.5 1113.5 373.469 172.5 373.469 174 371.969 174 394.877 171 394.877 171 370.469 1112 370.469 1110.5 371.969 1110.5 342.5ZM179.046 386.633 172.5 397.854 165.954 386.633C165.537 385.917 165.779 384.999 166.494 384.581 167.21 384.164 168.128 384.406 168.546 385.121L173.796 394.121 171.204 394.121 176.454 385.121C176.872 384.406 177.79 384.164 178.506 384.581 179.221 384.999 179.463 385.917 179.046 386.633Z" fill="#5B9BD5"/><path d="M984.5 215.001C984.5 200.917 995.917 189.5 1010 189.5L1214 189.5C1228.08 189.5 1239.5 200.917 1239.5 215.001L1239.5 316.999C1239.5 331.083 1228.08 342.5 1214 342.5L1010 342.5C995.917 342.5 984.5 331.083 984.5 316.999Z" stroke="#FFFFFF" stroke-width="1.33333" stroke-miterlimit="8" fill="#5B9BD5" fill-rule="evenodd"/><text fill="#FFFFFF" font-family="Calibri,Calibri_MSFontService,sans-serif" font-weight="400" font-size="43" transform="translate(1088.77 230)">RC</text><path d="M299.5 475.8 351.877 475.8 351.877 478.8 299.5 478.8ZM343.633 470.754 354.854 477.3 343.633 483.846C342.917 484.263 341.999 484.021 341.581 483.306 341.164 482.59 341.406 481.672 342.121 481.254L351.121 476.004 351.121 478.596 342.121 473.346C341.406 472.928 341.164 472.01 341.581 471.294 341.999 470.579 342.917 470.337 343.633 470.754Z" fill="#4472C4"/><rect x="45.5001" y="401.5" width="254" height="152" stroke="#FFFFFF" stroke-width="1.33333" stroke-miterlimit="8" fill="#4472C4"/><text fill="#FFFFFF" font-family="Calibri,Calibri_MSFontService,sans-serif" font-weight="400" font-size="43" transform="translate(132.03 465)">RTM</text><path d="M612.5 475.8 664.877 475.8 664.877 478.8 612.5 478.8ZM656.633 470.754 667.854 477.3 656.633 483.846C655.917 484.263 654.999 484.021 654.581 483.306 654.164 482.59 654.406 481.672 655.121 481.254L664.121 476.004 664.121 478.596 655.121 473.346C654.406 472.928 654.164 472.01 654.581 471.294 654.999 470.579 655.917 470.337 656.633 470.754Z" fill="#92D050"/><rect x="358.5" y="401.5" width="255" height="152" stroke="#FFFFFF" stroke-width="1.33333" stroke-miterlimit="8" fill="#70AD47"/><text fill="#FFFFFF" font-family="Calibri,Calibri_MSFontService,sans-serif" font-weight="400" font-size="43" transform="translate(459.404 465)">GA</text><rect x="671.5" y="401.5" width="293" height="152" stroke="#FFFFFF" stroke-width="1.33333" stroke-miterlimit="8" fill="#228B22"/><text fill="#FFFFFF" font-family="Calibri,Calibri_MSFontService,sans-serif" font-weight="400" font-size="43" transform="translate(722.459 465)">Production<tspan fill="#404040" font-family="Segoe UI Light,Segoe UI Light_MSFontService,sans-serif" font-weight="300" font-size="37" x="-266.023" y="-342">Phase de développement</tspan><tspan fill="#404040" font-family="Segoe UI Light,Segoe UI Light_MSFontService,sans-serif" font-weight="300" font-size="37" x="-227.238" y="199">Phase de publication</tspan><tspan fill="#5B9BD5" font-weight="700" font-size="27" x="294.432" y="-286">Release Candidate</tspan><tspan fill="#4472C4" font-weight="700" font-size="27" x="-693.6" y="115">Release to </tspan><tspan fill="#4472C4" font-weight="700" font-size="27" x="-572.92" y="115">Manufacturing</tspan><tspan fill="#4472C4" font-weight="700" font-size="27" x="-668.607" y="144">Release to Marketing</tspan><tspan fill="#70AD47" font-weight="700" font-size="27" x="-342.162" y="119">General </tspan><tspan fill="#70AD47" font-weight="700" font-size="27" x="-249.248" y="119">Availability</tspan><tspan font-size="27" x="-29.2883" y="36">Disponible au public</tspan><tspan font-size="27" x="-29.2883" y="68">Version commercialisée</tspan><tspan font-size="27" x="-656.059" y="-196">En développement</tspan><tspan font-size="27" x="-656.059" y="-167">Avant tests formels</tspan><tspan font-size="27" x="-29.2883" y="-205">Test d’utilisabilité</tspan><tspan font-size="27" x="-29.2883" y="-176">Peut avoir des </tspan><tspan font-size="27" x="-29.2883" y="-148">fautes mineures</tspan><tspan font-size="27" x="-342.334" y="-201">Tests fonctionnels</tspan><tspan font-size="27" x="-342.334" y="-172">Peut avoir des </tspan><tspan font-size="27" x="-342.334" y="-144">fautes majeures</tspan></text><rect x="541" y="349" width="233" height="45" stroke="#FFFFFF" stroke-width="2" stroke-miterlimit="8" fill="#4472C4"/><text fill="#FFFFFF" font-family="Segoe UI Semibold,Segoe UI Semibold_MSFontService,sans-serif" font-weight="600" font-size="29" transform="translate(551.634 383)">Version "<tspan font-style="italic" font-size="29" x="119.48" y="0">stable</tspan><tspan font-size="29" x="198.34" y="0">"</tspan><tspan font-family="Calibri,Calibri_MSFontService,sans-serif" font-weight="400" font-size="27" x="462.498" y="-122">Produit potentiel</tspan><tspan font-family="Calibri,Calibri_MSFontService,sans-serif" font-weight="400" font-size="27" x="462.498" y="-93">Documentation</tspan><tspan font-family="Calibri,Calibri_MSFontService,sans-serif" font-weight="400" font-size="27" x="462.498" y="-65">Correction mineure</tspan></text><rect x="587" y="174" width="110" height="56" stroke="#FF5050" stroke-width="2" stroke-linejoin="round" stroke-miterlimit="10" stroke-dasharray="8 6" fill="#FFFFFF" fill-opacity="0.8"/><text fill="#404040" font-family="Segoe UI Semibold,Segoe UI Semibold_MSFontService,sans-serif" font-weight="600" font-size="21" transform="translate(605.637 197)">Feature<tspan font-size="21" x="-8.8667" y="23">complete</tspan><tspan fill="#ED7D31" font-family="Calibri,Calibri_MSFontService,sans-serif" font-style="italic" font-weight="700" font-size="27" x="101.753" y="-17">Preview</tspan><tspan fill="#ED7D31" font-family="Calibri,Calibri_MSFontService,sans-serif" font-style="italic" font-weight="700" font-size="27" x="195.993" y="-17">release</tspan></text><rect x="902" y="174" width="110" height="56" stroke="#ED7D31" stroke-width="2" stroke-linejoin="round" stroke-miterlimit="10" stroke-dasharray="8 6" fill="#FFFFFF" fill-opacity="0.8"/><text fill="#404040" font-family="Segoe UI Semibold,Segoe UI Semibold_MSFontService,sans-serif" font-weight="600" font-size="21" transform="translate(931.824 197)">Code <tspan font-size="21" x="-19.94" y="23">complete</tspan><tspan font-family="Calibri,Calibri_MSFontService,sans-serif" font-style="italic" font-weight="700" font-size="27" x="-882.137" y="-47">Development</tspan><tspan font-family="Calibri,Calibri_MSFontService,sans-serif" font-style="italic" font-weight="700" font-size="27" x="-728.603" y="-47">releases</tspan><tspan font-family="Calibri,Calibri_MSFontService,sans-serif" font-style="italic" font-weight="700" font-size="27" x="-835.917" y="-18">Nightly</tspan><tspan font-family="Calibri,Calibri_MSFontService,sans-serif" font-style="italic" font-weight="700" font-size="27" x="-749.997" y="-18">builds</tspan><tspan fill="#FFFFFF" font-family="Calibri,Calibri_MSFontService,sans-serif" font-weight="400" font-size="27" x="-865.424" y="301">Prêt à être distribué</tspan><tspan fill="#FFFFFF" font-family="Calibri,Calibri_MSFontService,sans-serif" font-weight="400" font-size="27" x="-865.424" y="333">Denier </tspan><tspan fill="#FFFFFF" font-family="Calibri,Calibri_MSFontService,sans-serif" font-weight="400" font-size="27" x="-786.924" y="333">build</tspan><tspan fill="#FFFFFF" font-family="Calibri,Calibri_MSFontService,sans-serif" font-weight="400" font-size="27" x="-551.699" y="302">Commercialisation</tspan><tspan fill="#FFFFFF" font-family="Calibri,Calibri_MSFontService,sans-serif" font-weight="400" font-size="27" x="-551.699" y="334">Mise en vente</tspan></text><rect x="274" y="398" width="110" height="56" stroke="#4472C4" stroke-width="2" stroke-linejoin="round" stroke-miterlimit="10" stroke-dasharray="8 6" fill="#FFFFFF" fill-opacity="0.8"/><text fill="#404040" font-family="Segoe UI Semibold,Segoe UI Semibold_MSFontService,sans-serif" font-weight="600" font-size="21" transform="translate(291.164 421)">Product <tspan font-size="21" x="11" y="23">ready</tspan></text><rect x="587" y="397" width="110" height="56" stroke="#70AD47" stroke-width="2" stroke-linejoin="round" stroke-miterlimit="10" stroke-dasharray="8 6" fill="#FFFFFF" fill-opacity="0.8"/><text fill="#404040" font-family="Segoe UI Semibold,Segoe UI Semibold_MSFontService,sans-serif" font-weight="600" font-size="21" transform="translate(603.88 420)">Product <tspan font-size="21" x="-4.41333" y="23">available</tspan><tspan fill="#228B22" font-family="Calibri,Calibri_MSFontService,sans-serif" font-style="italic" font-weight="700" font-size="32" x="139.171" y="168">Live release</tspan></text></g></svg>