<svg width="1280" height="720" xmlns="http://www.w3.org/2000/svg" xmlns:xlink="http://www.w3.org/1999/xlink" overflow="hidden"><defs><clipPath id="clip0"><rect x="0" y="0" width="1280" height="720"/></clipPath></defs><g clip-path="url(#clip0)"><rect x="0" y="0" width="1280" height="720" fill="#FFFFFF"/><rect x="0" y="0" width="474" height="720" fill="#262626"/><text fill="#FFFFFF" font-family="Calibri Light,Calibri Light_MSFontService,sans-serif" font-weight="300" font-size="64" transform="translate(124.662 343)">Types de <tspan font-size="64" x="-48.0933" y="69">changement</tspan></text><path d="M615 344C615 202.063 730.063 87 872 87L872 110.87C743.246 110.87 638.87 215.246 638.87 344Z" fill="#5F4B8B" fill-rule="evenodd"/><path d="M872 601C730.063 601 615 485.937 615 344L638.87 344C638.87 472.754 743.246 577.13 872 577.13Z" fill="#5B9BD5" fill-rule="evenodd"/><path d="M1129 344C1129 485.937 1013.94 601 872 601L872 577.13C1000.75 577.13 1105.13 472.754 1105.13 344Z" fill="#70AD47" fill-rule="evenodd"/><path d="M872 87C1013.94 87 1129 202.063 1129 344L1105.13 344C1105.13 215.246 1000.75 110.87 872 110.87Z" fill="#FF5050" fill-rule="evenodd"/><path d="M753.5 344C753.5 278.554 806.554 225.5 872 225.5 937.446 225.5 990.5 278.554 990.5 344 990.5 409.446 937.446 462.5 872 462.5 806.554 462.5 753.5 409.446 753.5 344Z" stroke="#FFFFFF" stroke-width="1.33333" stroke-miterlimit="8" fill="#404040" fill-rule="evenodd"/><text fill="#FFFFFF" font-family="Calibri,Calibri_MSFontService,sans-serif" font-weight="400" font-size="29" transform="translate(793.333 352)">Maintenance</text><path d="M789.5 93.0001C789.5 47.4366 826.66 10.5001 872.5 10.5001 918.34 10.5001 955.5 47.4366 955.5 93.0001 955.5 138.564 918.34 175.5 872.5 175.5 826.66 175.5 789.5 138.564 789.5 93.0001Z" stroke="#FFFFFF" stroke-width="1.33333" stroke-miterlimit="8" fill="#FF5050" fill-rule="evenodd"/><text fill="#FFFFFF" font-family="Calibri,Calibri_MSFontService,sans-serif" font-weight="400" font-size="27" transform="translate(824.7 100)">Correctif</text><path d="M1040.5 344.5C1040.5 298.66 1077.66 261.5 1123.5 261.5 1169.34 261.5 1206.5 298.66 1206.5 344.5 1206.5 390.34 1169.34 427.5 1123.5 427.5 1077.66 427.5 1040.5 390.34 1040.5 344.5Z" stroke="#FFFFFF" stroke-width="1.33333" stroke-miterlimit="8" fill="#70AD47" fill-rule="evenodd"/><text fill="#FFFFFF" font-family="Calibri,Calibri_MSFontService,sans-serif" font-weight="400" font-size="27" transform="translate(1083.29 351)">Adaptif</text><path d="M789.5 595.5C789.5 549.66 826.66 512.5 872.5 512.5 918.34 512.5 955.5 549.66 955.5 595.5 955.5 641.34 918.34 678.5 872.5 678.5 826.66 678.5 789.5 641.34 789.5 595.5Z" stroke="#FFFFFF" stroke-width="1.33333" stroke-miterlimit="8" fill="#5B9BD5" fill-rule="evenodd"/><text fill="#FFFFFF" font-family="Calibri,Calibri_MSFontService,sans-serif" font-weight="400" font-size="27" transform="translate(822.896 602)">Pr<tspan font-size="27" x="22.72" y="0">éventif</tspan></text><path d="M538.5 344.5C538.5 298.66 575.66 261.5 621.5 261.5 667.34 261.5 704.5 298.66 704.5 344.5 704.5 390.34 667.34 427.5 621.5 427.5 575.66 427.5 538.5 390.34 538.5 344.5Z" stroke="#FFFFFF" stroke-width="1.33333" stroke-miterlimit="8" fill="#5F4B8B" fill-rule="evenodd"/><text fill="#FFFFFF" font-family="Calibri,Calibri_MSFontService,sans-serif" font-weight="400" font-size="27" transform="translate(575.209 351)">Perfectif</text><text font-family="Segoe UI Semilight,Segoe UI Semilight_MSFontService,sans-serif" font-weight="300" font-size="27" transform="matrix(0.707107 -0.707107 0.707107 0.707107 952.529 536)">Améliorations</text><text font-family="Segoe UI Semilight,Segoe UI Semilight_MSFontService,sans-serif" font-weight="300" font-size="27" transform="matrix(0.707107 0.707107 -0.707107 0.707107 695.134 447)">Support</text><text font-family="Segoe UI Semilight,Segoe UI Semilight_MSFontService,sans-serif" font-weight="300" font-size="27" transform="matrix(0.707107 -0.707107 0.707107 0.707107 705.648 252)">Bug fixes</text><text font-family="Segoe UI Semilight,Segoe UI Semilight_MSFontService,sans-serif" font-weight="300" font-size="27" transform="matrix(0.707107 0.707107 -0.707107 0.707107 946.559 166)">Surveillance</text></g></svg>