<svg width="956" height="672" xmlns="http://www.w3.org/2000/svg" xmlns:xlink="http://www.w3.org/1999/xlink" overflow="hidden"><defs><clipPath id="clip0"><rect x="162" y="24" width="956" height="672"/></clipPath></defs><g clip-path="url(#clip0)" transform="translate(-162 -24)"><path d="M459.5 360.5C459.5 260.536 540.536 179.5 640.5 179.5 740.464 179.5 821.5 260.536 821.5 360.5 821.5 460.464 740.464 541.5 640.5 541.5 540.536 541.5 459.5 460.464 459.5 360.5Z" stroke="#000000" stroke-width="1.33333" stroke-miterlimit="8" fill="#FFFFFF" fill-rule="evenodd" fill-opacity="0.501961"/><text font-family="Segoe UI,Segoe UI_MSFontService,sans-serif" font-weight="300" font-size="52" transform="translate(570.313 347)">Bonne <tspan font-size="52" x="-51.1333" y="62">conception</tspan></text><path d="M527.5 145C527.5 82.3157 578.316 31.5001 641 31.5001 703.684 31.5001 754.5 82.3157 754.5 145 754.5 207.684 703.684 258.5 641 258.5 578.316 258.5 527.5 207.684 527.5 145Z" stroke="#70AD47" stroke-width="1.33333" stroke-miterlimit="8" fill="#70AD47" fill-rule="evenodd" fill-opacity="0.901961"/><text fill="#FFFFFF" font-family="Segoe UI,Segoe UI_MSFontService,sans-serif" font-weight="600" font-size="29" transform="translate(563.581 155)">Abstraction</text><path d="M778.5 360.5C778.5 298.092 829.092 247.5 891.5 247.5 953.908 247.5 1004.5 298.092 1004.5 360.5 1004.5 422.908 953.908 473.5 891.5 473.5 829.092 473.5 778.5 422.908 778.5 360.5Z" stroke="#4472C4" stroke-width="1.33333" stroke-miterlimit="8" fill="#4472C4" fill-rule="evenodd" fill-opacity="0.901961"/><text fill="#FFFFFF" font-family="Segoe UI,Segoe UI_MSFontService,sans-serif" font-weight="600" font-size="32" transform="translate(852.811 352)">Forte <tspan font-size="32" x="-26.7" y="39">cohésion</tspan></text><path d="M528.5 576.5C528.5 514.092 579.092 463.5 641.5 463.5 703.908 463.5 754.5 514.092 754.5 576.5 754.5 638.908 703.908 689.5 641.5 689.5 579.092 689.5 528.5 638.908 528.5 576.5Z" stroke="#ED7D31" stroke-width="1.33333" stroke-miterlimit="8" fill="#ED7D31" fill-rule="evenodd" fill-opacity="0.901961"/><text fill="#FFFFFF" font-family="Segoe UI,Segoe UI_MSFontService,sans-serif" font-weight="600" font-size="24" transform="translate(565.397 585)">Encapsulation</text><path d="M272.5 360.5C272.5 298.092 323.316 247.5 386 247.5 448.684 247.5 499.5 298.092 499.5 360.5 499.5 422.908 448.684 473.5 386 473.5 323.316 473.5 272.5 422.908 272.5 360.5Z" stroke="#FF5050" stroke-width="1.33333" stroke-miterlimit="8" fill="#FF5050" fill-rule="evenodd" fill-opacity="0.901961"/><text fill="#FFFFFF" font-family="Segoe UI,Segoe UI_MSFontService,sans-serif" font-weight="600" font-size="32" transform="translate(342.888 352)">Faible <tspan font-size="32" x="-24.3734" y="39">couplage</tspan></text></g></svg>